<?xml version="1.0" encoding="UTF-8" standalone="no"?>
<!-- Created with Inkscape (http://www.inkscape.org/) -->

<svg
   xmlns:dc="http://purl.org/dc/elements/1.1/"
   xmlns:cc="http://creativecommons.org/ns#"
   xmlns:rdf="http://www.w3.org/1999/02/22-rdf-syntax-ns#"
   xmlns:svg="http://www.w3.org/2000/svg"
   xmlns="http://www.w3.org/2000/svg"
   xmlns:sodipodi="http://sodipodi.sourceforge.net/DTD/sodipodi-0.dtd"
   xmlns:inkscape="http://www.inkscape.org/namespaces/inkscape"
   width="500"
   height="500"
   viewBox="0 0 500 500.00002"
   version="1.1"
   id="svg8"
   inkscape:export-filename="C:\Users\NTUTCSIE\Desktop\ip2019s-master\portfolio\labs\lab03\1000png\U+9748.png"
   inkscape:export-xdpi="96"
   inkscape:export-ydpi="96"
   inkscape:version="0.92.4 (5da689c313, 2019-01-14)"
   sodipodi:docname="U+9748.svg">
  <defs
     id="defs2" />
  <sodipodi:namedview
     id="base"
     pagecolor="#ffffff"
     bordercolor="#666666"
     borderopacity="1.0"
     inkscape:pageopacity="0.0"
     inkscape:pageshadow="2"
     inkscape:zoom="0.98994949"
     inkscape:cx="380.69731"
     inkscape:cy="229.78835"
     inkscape:document-units="px"
     inkscape:current-layer="layer1"
     showgrid="false"
     units="px"
     showguides="true"
     inkscape:window-width="1920"
     inkscape:window-height="1057"
     inkscape:window-x="-8"
     inkscape:window-y="-8"
     inkscape:window-maximized="1">
    <inkscape:grid
       type="xygrid"
       id="grid3727" />
  </sodipodi:namedview>
  <metadata
     id="metadata5">
    <rdf:RDF>
      <cc:Work
         rdf:about="">
        <dc:format>image/svg+xml</dc:format>
        <dc:type
           rdf:resource="http://purl.org/dc/dcmitype/StillImage" />
        <dc:title></dc:title>
      </cc:Work>
    </rdf:RDF>
  </metadata>
  <g
     inkscape:label="圖層 1"
     inkscape:groupmode="layer"
     id="layer1"
     transform="translate(0,-622.51965)">
    <g
       id="g3725"
       transform="matrix(1.6286645,0,0,1.4925373,-24.546272,-316.74209)" />
    <path
       style="fill:#000000;fill-opacity:1;stroke:none;stroke-width:1px;stroke-linecap:butt;stroke-linejoin:miter;stroke-opacity:1"
       d="M 111.42857,721.09108 C 114.64286,724.66251 140,737.87679 140,737.87679 l -0.35714,37.85715 c 0,0 -1.07143,35 -1.78572,36.78571 -0.71428,1.78571 -8.57143,28.21429 -8.92857,31.07143 -0.35714,2.85714 -3.92857,17.14286 -5.71428,15.71428 -1.78572,-1.42857 -22.85715,-1.78571 -22.85715,-1.78571 l -8.928568,-19.28571 5.714285,-28.92858 7.500003,-26.42856 4.64285,-41.07144 -0.71428,-17.85714 z"
       id="path4560"
       inkscape:connector-curvature="0"
       sodipodi:nodetypes="ccccscccccccc" />
    <path
       style="fill:#000000;stroke:none;stroke-width:1px;stroke-linecap:butt;stroke-linejoin:miter;stroke-opacity:1;fill-opacity:1"
       d="m 195,688.94822 c 9.28571,0.71429 16.42857,2.14286 18.92857,1.42857 2.5,-0.71428 39.28572,-14.64286 39.28572,-14.64286 0,0 11.07142,-6.78571 19.28571,-7.14285 8.21429,-0.35715 28.21429,0.71428 28.21429,0.71428 L 310,671.09108 c 0,0 10.35714,8.21428 5.71429,16.42857 -4.64286,8.21428 -16.07143,21.78571 -16.07143,21.78571 l -11.42857,5 -18.57143,-1.07143 c 0,0 -29.28572,3.92858 -31.07143,3.92858 -1.78572,0 -24.28572,0 -24.28572,0 l -7.5,-6.78572 -19.64285,-13.57143 z"
       id="path4562"
       inkscape:connector-curvature="0" />
    <path
       style="fill:#000000;stroke:none;stroke-width:1px;stroke-linecap:butt;stroke-linejoin:miter;stroke-opacity:1;fill-opacity:1"
       d="m 156.42857,766.80536 c 3.21429,-0.71428 38.92857,-4.28571 40.35714,-4.28571 1.42858,0 30.35715,-9.64286 30.35715,-9.64286 L 225,741.09108 l -6.07143,-8.57143 c 0,0 2.14286,-6.07143 5,-6.07143 2.85714,0 16.42857,-1.07143 17.85714,0.35714 1.42858,1.42858 13.21429,7.5 13.21429,7.5 l 4.64286,11.07143 c 0,0 2.14285,0 4.28571,0.35715 2.14286,0.35714 16.78572,-3.21429 18.57143,-3.92858 1.78571,-0.71428 47.5,-11.78571 47.5,-11.78571 l 45.71429,-3.92857 15.71428,1.78571 13.57143,10.71429 12.85714,12.85714 c 0,0 0,15.35714 0,17.5 0,2.14286 -2.85714,9.64286 -6.07143,10 -3.21428,0.35714 -16.07142,4.64286 -16.07142,4.64286 l -7.85715,11.07143 c 0,0 -14.64285,7.5 -16.42857,7.5 -1.78571,0 -25.35714,2.5 -25.35714,2.5 l -6.42857,-11.42857 c 0,0 -15,-2.5 -15.35715,-4.64286 -0.35714,-2.14286 -2.85714,-11.78572 -0.35714,-12.14286 2.5,-0.35714 18.21429,-1.42857 18.21429,-1.42857 0,0 21.07143,-6.78571 21.78571,-8.21429 0.71429,-1.42857 17.5,-18.21428 17.5,-18.21428 0,0 1.42857,-0.71429 1.78572,-2.85714 0.35714,-2.14286 -7.5,-7.14286 -7.5,-7.14286 0,0 -19.64286,4.28571 -23.92858,3.21428 -4.28571,-1.07142 -35.71428,4.28572 -35.71428,4.28572 l -32.5,9.64286 -18.57143,3.92857 -3.57143,30 -8.21428,30 -6.78572,12.5 -9.64286,2.5 c 0,0 -8.92857,-5 -8.92857,-10.35715 0,-5.35714 -1.42857,-23.57142 -1.07143,-25.71428 0.35715,-2.14286 -0.35714,-25 -0.35714,-25 l -21.07143,7.5 -10.35714,2.5 -26.07143,-6.07143 -13.21428,-9.64286 z"
       id="path4564"
       inkscape:connector-curvature="0" />
    <path
       style="fill:#000000;stroke:none;stroke-width:1px;stroke-linecap:butt;stroke-linejoin:miter;stroke-opacity:1;fill-opacity:1"
       d="m 286.42857,776.44822 c -3.21428,3.92857 -9.28571,16.07143 -9.64286,18.92857 -0.35714,2.85715 3.21429,14.28572 3.21429,14.28572 0,0 18.21429,-8.92857 21.42857,-10 3.21429,-1.07143 11.42857,-8.57143 11.42857,-8.57143 l -2.14285,-11.07143 -12.14286,-8.57143 z"
       id="path4566"
       inkscape:connector-curvature="0" />
    <path
       style="fill:#000000;stroke:none;stroke-width:1px;stroke-linecap:butt;stroke-linejoin:miter;stroke-opacity:1;fill-opacity:1"
       d="m 194.28571,793.59108 c 1.42858,2.5 12.5,8.21428 12.5,12.5 0,4.28571 -5.35714,20.71428 -5.35714,20.71428 0,0 -8.57143,11.42858 -10,11.42858 -1.42857,0 -15.71428,-9.28572 -15,-11.78572 0.71429,-2.5 1.78572,-17.85714 3.21429,-19.28571 1.42857,-1.42857 10,-11.07143 10,-11.07143 z"
       id="path4568"
       inkscape:connector-curvature="0" />
    <path
       style="fill:#000000;stroke:none;stroke-width:1px;stroke-linecap:butt;stroke-linejoin:miter;stroke-opacity:1;fill-opacity:1"
       d="m 135,870.37679 c 0,0 5.71429,5 5.71429,7.5 0,2.5 0,25.71429 0.71428,27.14286 0.71429,1.42857 5.35714,8.21429 5.35714,8.21429 3.55876,1.95546 7.07008,-1.61362 12.50001,-7.14286 -0.23841,-6.34485 -2.51181,-14.6148 -1.07144,-27.14286 3.40696,-8.34993 11.50295,-7.45694 19.28572,-10.35714 l 0.35714,12.5 -0.71428,24.64286 c 0,0 15.35714,-7.14286 17.14285,-8.21429 C 196.07143,896.44822 205,883.23394 205,883.23394 c 0,0 -2.14285,-14.28572 -2.14285,-16.42858 0,-2.14286 -12.85715,-12.14285 -12.85715,-12.14285 0,0 -20.35714,1.78571 -21.78571,2.85714 -1.42858,1.07143 -14.28572,9.28571 -14.28572,9.28571 l -16.07143,-6.42857 c -3.02645,0.66931 -6.11134,0.87112 -8.21428,8.92857 z"
       id="path4570"
       inkscape:connector-curvature="0"
       sodipodi:nodetypes="cscccccccccscccccc" />
    <path
       style="fill:#000000;stroke:none;stroke-width:1px;stroke-linecap:butt;stroke-linejoin:miter;stroke-opacity:1;fill-opacity:1"
       d="m 233.92857,863.23394 c 0,0 30.71429,-8.21429 33.21429,-8.21429 2.5,0 38.57143,-9.28571 40,-10 1.42857,-0.71429 12.14285,-6.42857 15,-6.42857 2.85714,0 25.35714,1.42857 25.35714,1.42857 l 23.21429,0.35714 7.85714,10 -0.35714,10.35715 c 0,0 -8.21429,5.35714 -11.07143,5.35714 -2.85715,0 -27.85715,5 -27.85715,5 0,0 -22.5,11.07143 -25.35714,12.5 -2.85714,1.42857 -17.85714,11.78571 -17.85714,11.78571 0,0 -8.57143,-1.78571 -8.57143,-5.71428 0,-3.92857 5,-11.42857 5,-11.42857 l 18.92857,-10 30,-13.21429 -5.71428,-5 -17.14286,1.07143 -23.21429,4.28571 c 0,0 -15.71428,14.64286 -18.21428,16.07143 -2.5,1.42857 -18.57143,16.42857 -21.42857,16.42857 -2.85715,0 -9.64286,0 -9.64286,0 l -17.85714,-24.28571 z"
       id="path4572"
       inkscape:connector-curvature="0" />
    <path
       style="fill:#000000;fill-opacity:1;stroke:none;stroke-width:1px;stroke-linecap:butt;stroke-linejoin:miter;stroke-opacity:1"
       d="m 216.07143,934.66251 c 2.5,-3.92857 32.5,-16.78572 36.42857,-18.92857 3.92857,-2.14286 9.64286,-10.35715 11.42857,-10.35715 1.78572,0 21.07143,6.78572 21.07143,6.78572 0,0 0.35714,7.85714 -0.35714,9.64285 -0.71429,1.78572 -3.92857,10.71429 -10.35715,11.07143 -6.42857,0.35715 -13.21428,3.92857 -13.21428,3.92857 l -1.78572,6.78572 v 43.57143 c 0,0 -5.71428,16.42859 -6.07142,20.35709 -0.35715,3.9286 0,20.3572 0,20.3572 l 22.5,-6.7857 22.14285,-6.0715 c 0,0 1.42857,-8.2142 4.28572,-7.5 2.85714,0.7143 19.64285,3.9286 19.64285,3.9286 l 15.35715,11.4286 c 0,0 -5.35715,8.5714 -9.64286,9.2857 -4.28571,0.7143 -35.71429,6.7857 -35.71429,6.7857 0,0 -32.5,3.5715 -34.28571,4.2857 -1.78571,0.7143 -27.14286,12.1429 -27.14286,12.1429 0,0 -23.21428,8.9286 -24.64285,8.9286 -1.42858,0 -25.71429,-8.5715 -25.71429,-8.5715 l 4.64286,-6.4285 c 0,0 18.92857,-2.8572 23.21428,-5.7143 4.28572,-2.8572 22.85714,-10.0001 24.64286,-11.7858 1.78571,-1.7857 2.14286,-53.57136 2.14286,-53.57136 0,0 4.64285,-24.64286 3.57143,-26.42858 -1.07143,-1.78571 -1.42858,-7.14285 -6.42858,-7.5 -5,-0.35714 -9.28571,1.07143 -9.28571,1.07143 l -8.92857,-6.78571 z"
       id="path4574"
       inkscape:connector-curvature="0"
       sodipodi:nodetypes="scsccccccsccccccscccscccccccccs" />
    <path
       style="fill:#000000;fill-opacity:1;stroke:none;stroke-width:1px;stroke-linecap:butt;stroke-linejoin:miter;stroke-opacity:1"
       d="m 281.07143,943.59108 c 0,0 -1.42857,6.78571 -2.5,9.64286 -1.07143,2.85714 -10,6.42857 -6.07143,10.71428 3.92857,4.28572 12.14286,7.14286 12.14286,7.14286 l 18.57143,-15 c 0,0 1.42857,-4.28572 -0.35715,-7.5 -1.78571,-3.21429 -11.42857,-10.35714 -11.42857,-10.35714 0,0 -10.71428,2.14285 -10.71428,3.57142 0,1.42858 0.35714,1.78572 0.35714,1.78572 z"
       id="path4576"
       inkscape:connector-curvature="0"
       sodipodi:nodetypes="cccccccsc" />
    <path
       style="fill:#000000;stroke:none;stroke-width:1px;stroke-linecap:butt;stroke-linejoin:miter;stroke-opacity:1;fill-opacity:1"
       d="m 270.35714,999.30536 c 1.78572,-1.07142 10.71429,-8.21428 12.5,-9.64285 1.78572,-1.42857 5,-11.42857 5,-11.42857 l 15.71429,-3.92858 8.21428,13.21429 c 0,0 -10.35714,7.5 -12.14285,8.21429 -1.78572,0.71428 -17.85715,17.85716 -25.71429,14.99996 -7.85714,-2.8571 -7.5,-9.6428 -7.5,-9.6428 z"
       id="path4578"
       inkscape:connector-curvature="0" />
    <path
       style="fill:#000000;stroke:none;stroke-width:1px;stroke-linecap:butt;stroke-linejoin:miter;stroke-opacity:1;fill-opacity:1"
       d="m 206.42857,957.51965 c -1.42857,0.71429 -5.35714,17.5 -5.35714,20.71429 0,3.21428 -6.07143,11.42857 -6.07143,13.92857 0,2.5 -2.5,8.92859 0,13.92859 2.5,5 -2.14286,8.2143 6.07143,8.9285 8.21428,0.7143 16.42857,-8.9285 16.42857,-10.3571 0,-1.4286 3.57143,-23.92856 2.5,-26.78571 -1.07143,-2.85714 -5.71429,-16.78571 -5.71429,-16.78571 z"
       id="path4580"
       inkscape:connector-curvature="0" />
  </g>
</svg>
