<?xml version="1.0" standalone="no"?>
<!DOCTYPE svg PUBLIC "-//W3C//DTD SVG 1.1//EN" "http://www.w3.org/Graphics/SVG/1.1/DTD/svg11.dtd" >
<svg xmlns="http://www.w3.org/2000/svg" xmlns:xlink="http://www.w3.org/1999/xlink" version="1.1" viewBox="0 0 256 256">
  <g transform="matrix(1 0 0 -1 0 204)">
   <path fill="currentColor"
d="M116 211q2 -2 5 -3l6 -2q5 -4 2 -7q-3 0 -1 -24q6 1 19 3q4 1 6 2q4 1 6 4q1 5 9 2q3 -2 9 -4h3q3 -2 2 -4q-1 -1 -4 -1q-16 4 -49 -6v-6q9 -7 5 -9q-4 -3 -6 -5q0 -4 -1 -11t0 -10q-4 -16 1 -24q1 -3 -1 -5q-2 -1 -3 1q-8 13 -4 21q2 5 2 24q-41 -30 -66 -53
q-4 -3 -5 -2t3 5q57 46 67 62v10q-4 -1 -10 -3q-16 -3 -23 -5q-7 -4 -21 0q-5 1 -1 2l1 1q27 2 54 10q-1 25 -7 35q-4 4 2 2zM146 146q51 -1 62 -16q-1 -5 -6 -3q-5 3 -17 3q-5 -1 -5 0q-1 1 2 3q1 1 0 2q0 1 -2 2q-16 6 -33 8q-5 0 -1 1zM147 110q8 -3 14 -6q4 -3 4 -4
q0 -2 -4 -5q-7 -4 -24 -28q6 -1 5 -4q0 -1 -1 -3q0 -6 1 -10q10 1 19 2q15 2 28 4q1 9 10 6q2 -3 9 -5q10 -3 21 -7q2 -2 2 -4q-1 -2 -3 -2q-12 2 -17 7q-8 3 -14 3q-40 -5 -55 -8q3 -30 2 -39q-1 -8 -8 -24q-3 -9 -12 -8q-22 0 -35 5q-6 4 1 2q24 -3 37 3q19 17 9 60
q-63 -11 -84 -17q-9 -3 -19 -1q-3 0 -3 1t3 2q52 9 103 18q-4 17 -11 16q-3 0 -3 1t3 2q2 1 7 1q7 12 13 28q0 4 -1 5t-5 -1q-31 -18 -42 -28q-5 -5 -7 1q-5 6 -1 8q1 0 5 6q-3 -5 2 2q4 4 2 -1q-2 -4 -2 -5q1 -1 4 1q13 7 34 16q6 2 6 7q-1 6 7 3z" />
  </g>

</svg>
