<?xml version="1.0" standalone="no"?>
<!DOCTYPE svg PUBLIC "-//W3C//DTD SVG 1.1//EN" "http://www.w3.org/Graphics/SVG/1.1/DTD/svg11.dtd" >
<svg xmlns="http://www.w3.org/2000/svg" xmlns:xlink="http://www.w3.org/1999/xlink" version="1.1" viewBox="0 0 256 256">
  <g transform="matrix(1 0 0 -1 0 204)">
   <path fill="currentColor"
d="M75 110q2 4 6 4q5 -2 10 -3q3 -3 0 -6q-3 -1 -6 -8q-1 -3 -3 -7q-7 -15 -10 -20q5 1 11 5q5 4 17 -1q3 -3 0 -5q-6 -6 -8 -13q-3 -13 -8 -21q6 -5 17 -12q32 -22 57 -30q9 -4 24 -2q31 5 57 1q3 0 3 -1t-3 -2q-16 0 -26 -2q-10 -1 -26 -5q-15 -4 -30 4q-24 13 -42 23
q-15 10 -33 21q-10 -19 -25 -27q-5 -3 -1 1q16 15 22 28q-22 13 -37 6q-2 -1 -2 0q0 2 2 3q15 6 22 5q3 0 14 -8q1 -1 3 -1q5 12 7 28q0 4 -4 3q-11 -2 -15 -5q-3 -3 -4 -1q-2 1 1 4q9 8 13 35q0 2 -1 2q-1 1 -2 0q-16 -11 -20 -5q-3 0 -3 1q1 1 4 2l9 3q2 0 6 2l1 1
q2 1 3 3zM145 203q4 -3 12 -4q2 0 3 -3q0 -3 -2 -3q-1 0 -3 -1t-5 -1q-8 0 -19 -4l-2 -1l-12 -4q1 -2 5 -3q2 -2 4 -2q2 -1 3 -1q67 13 87 -10q8 -11 8 -16q0 -2 -4 -2q-5 -1 -6 2h-4q-2 1 -13 1q-25 -3 -40 0q-4 1 1 2q13 -1 33 2q6 1 10 2q13 3 10 9q-13 20 -82 7
q-5 -3 -5 -7v-20l1 1q1 0 3 1q6 4 -3 -7q-1 -4 -1 -11q1 -4 1 -5q-1 -7 -2 -13q-1 -3 -3 -3q-1 0 -1 3q-2 4 -5 8q-2 2 -3 7q-7 -6 -12 -13q-1 -2 -2 -2q-6 -1 -11 4q-2 1 0 2q5 -2 13 5q2 2 6 5q3 2 4 4q0 4 2 2q0 1 4 4l4 4q-2 11 -1 28q-30 -7 -35 -9q-4 -3 -8 0
q-2 0 0 1q1 0 3 1q1 0 3 1q21 6 37 10l-2 4q-1 -1 -1 4q-16 0 -26 4q-2 0 1 1q26 1 46 12q-2 2 2 4q1 1 7 0zM109 23q1 0 5 1q13 5 29 9q-5 13 -1 18q1 0 1 15q-14 -4 -26 -8q-7 -3 -20 0q-4 0 1 2q10 1 17 3q4 1 7 2q3 0 6 1q9 3 15 4q0 1 -1 4t0 5q0 10 -5 14q-1 1 -1 2
t2 1q5 -2 12 -9q3 -3 0 -6q-2 -2 -2 -10q4 1 13 3q8 1 13 3q2 6 10 6q10 -1 20 -5q2 -2 1 -5q-2 -2 -5 -2q-10 1 -23 1q-13 -1 -29 -4q-1 -7 -1 -15q1 -9 3 -18q3 0 8 1q5 0 9 1q5 0 8 2q4 3 19 -3q4 -6 -3 -7q-4 -2 -11 2q-6 2 -16 1q-18 -1 -38 -8q-10 -5 -17 -3q-4 0 0 2
zM163 122q3 -1 7 -2q3 -1 6 -1q2 -2 2 -4t-2 -2q-8 -1 -20 -7q-5 -2 -13 -6q-23 -9 -33 -11q-3 -1 -3 0q0 2 3 3q12 3 29 14q16 8 16 13q1 4 8 3zM59 153q-5 -11 3 -22q0 -1 -3 -4t-4 -1q-4 4 -7 15q-2 1 3 6q4 2 6 7q1 2 2 -1zM160 168q5 -3 7 -4q0 -2 -2 -3t-4 -3
q-5 -2 -6 -2q-17 -11 -25 -14q-4 -1 -1 1q5 3 15 10q6 5 10 8q4 2 4 5q-1 2 2 2zM135 138q23 0 32 -5q1 -1 1 -2q-3 -4 -8 -3q-4 1 -8 1q-2 0 -1 2q2 1 -3 2q-3 2 -13 4q-3 0 0 1zM105 154q3 -2 7 -1q2 0 2 -5q0 -3 -2 -2q-4 0 -5 -1q-5 -3 -4 -1q0 2 -3 3q1 0 0 1
q-5 1 -9 2q-3 1 0 2q4 0 11 1zM119 136q0 -1 -5 -5l-1 -1q2 -5 5 -4q1 -1 1 10z" />
  </g>

</svg>
